<svg id="visual" viewBox="0 0 900 600" width="900" height="600" xmlns="http://www.w3.org/2000/svg" xmlns:xlink="http://www.w3.org/1999/xlink" version="1.1"><g stroke-width="1" stroke-linejoin="bevel"><path d="M417 333L435 403L491 323Z" fill="#112e42" stroke="#112e42"></path><path d="M435 403L469 413L491 323Z" fill="#1d4e6b" stroke="#1d4e6b"></path><path d="M295 405L439 469L435 403Z" fill="#277297" stroke="#277297"></path><path d="M435 403L439 469L469 413Z" fill="#277297" stroke="#277297"></path><path d="M514 521L577 425L469 413Z" fill="#00101c" stroke="#00101c"></path><path d="M469 413L577 425L491 323Z" fill="#00101c" stroke="#00101c"></path><path d="M417 333L295 405L435 403Z" fill="#246688" stroke="#246688"></path><path d="M577 425L613 288L491 323Z" fill="#205a7a" stroke="#205a7a"></path><path d="M491 323L426 179L417 333Z" fill="#277297" stroke="#277297"></path><path d="M424 600L514 521L439 469Z" fill="#205a7a" stroke="#205a7a"></path><path d="M439 469L514 521L469 413Z" fill="#081a28" stroke="#081a28"></path><path d="M581 198L473 182L491 323Z" fill="#112e42" stroke="#112e42"></path><path d="M417 333L287 286L295 405Z" fill="#15384f" stroke="#15384f"></path><path d="M473 182L426 179L491 323Z" fill="#205a7a" stroke="#205a7a"></path><path d="M426 179L287 286L417 333Z" fill="#081a28" stroke="#081a28"></path><path d="M613 288L581 198L491 323Z" fill="#112e42" stroke="#112e42"></path><path d="M163 362L268 462L295 405Z" fill="#0c2435" stroke="#0c2435"></path><path d="M295 405L268 462L439 469Z" fill="#246688" stroke="#246688"></path><path d="M514 521L631 514L577 425Z" fill="#0c2435" stroke="#0c2435"></path><path d="M738 372L691 264L613 288Z" fill="#205a7a" stroke="#205a7a"></path><path d="M426 179L297 193L287 286Z" fill="#297ea6" stroke="#297ea6"></path><path d="M129 422L211 516L268 462Z" fill="#112e42" stroke="#112e42"></path><path d="M284 600L424 600L439 469Z" fill="#15384f" stroke="#15384f"></path><path d="M514 521L625 600L631 514Z" fill="#277297" stroke="#277297"></path><path d="M424 600L515 600L514 521Z" fill="#205a7a" stroke="#205a7a"></path><path d="M738 372L613 288L577 425Z" fill="#205a7a" stroke="#205a7a"></path><path d="M613 288L691 264L581 198Z" fill="#081a28" stroke="#081a28"></path><path d="M505 61L374 109L426 179Z" fill="#112e42" stroke="#112e42"></path><path d="M426 179L374 109L297 193Z" fill="#1d4e6b" stroke="#1d4e6b"></path><path d="M505 61L426 179L473 182Z" fill="#246688" stroke="#246688"></path><path d="M725 464L738 372L577 425Z" fill="#297ea6" stroke="#297ea6"></path><path d="M697 600L725 464L631 514Z" fill="#1d4e6b" stroke="#1d4e6b"></path><path d="M631 514L725 464L577 425Z" fill="#15384f" stroke="#15384f"></path><path d="M515 600L625 600L514 521Z" fill="#081a28" stroke="#081a28"></path><path d="M163 362L295 405L287 286Z" fill="#081a28" stroke="#081a28"></path><path d="M268 462L284 600L439 469Z" fill="#0c2435" stroke="#0c2435"></path><path d="M160 281L163 362L287 286Z" fill="#081a28" stroke="#081a28"></path><path d="M211 516L284 600L268 462Z" fill="#277297" stroke="#277297"></path><path d="M691 264L687 164L581 198Z" fill="#15384f" stroke="#15384f"></path><path d="M565 74L505 61L473 182Z" fill="#277297" stroke="#277297"></path><path d="M783 236L687 164L691 264Z" fill="#205a7a" stroke="#205a7a"></path><path d="M565 74L473 182L581 198Z" fill="#081a28" stroke="#081a28"></path><path d="M687 164L565 74L581 198Z" fill="#205a7a" stroke="#205a7a"></path><path d="M200 188L287 286L297 193Z" fill="#246688" stroke="#246688"></path><path d="M200 188L160 281L287 286Z" fill="#297ea6" stroke="#297ea6"></path><path d="M208 112L200 188L297 193Z" fill="#081a28" stroke="#081a28"></path><path d="M438 0L330 71L374 109Z" fill="#297ea6" stroke="#297ea6"></path><path d="M374 109L330 71L297 193Z" fill="#246688" stroke="#246688"></path><path d="M163 362L129 422L268 462Z" fill="#297ea6" stroke="#297ea6"></path><path d="M211 516L191 600L284 600Z" fill="#205a7a" stroke="#205a7a"></path><path d="M124 309L129 422L163 362Z" fill="#246688" stroke="#246688"></path><path d="M122 235L124 309L160 281Z" fill="#112e42" stroke="#112e42"></path><path d="M160 281L124 309L163 362Z" fill="#246688" stroke="#246688"></path><path d="M625 600L697 600L631 514Z" fill="#112e42" stroke="#112e42"></path><path d="M725 464L800 412L738 372Z" fill="#112e42" stroke="#112e42"></path><path d="M738 372L783 236L691 264Z" fill="#246688" stroke="#246688"></path><path d="M838 508L800 412L725 464Z" fill="#0c2435" stroke="#0c2435"></path><path d="M830 289L783 236L738 372Z" fill="#205a7a" stroke="#205a7a"></path><path d="M330 71L208 112L297 193Z" fill="#1d4e6b" stroke="#1d4e6b"></path><path d="M200 188L122 235L160 281Z" fill="#19435d" stroke="#19435d"></path><path d="M0 376L121 475L129 422Z" fill="#112e42" stroke="#112e42"></path><path d="M129 422L121 475L211 516Z" fill="#112e42" stroke="#112e42"></path><path d="M124 73L122 235L200 188Z" fill="#0c2435" stroke="#0c2435"></path><path d="M0 537L92 600L121 475Z" fill="#0c2435" stroke="#0c2435"></path><path d="M121 475L191 600L211 516Z" fill="#205a7a" stroke="#205a7a"></path><path d="M497 0L438 0L505 61Z" fill="#15384f" stroke="#15384f"></path><path d="M505 61L438 0L374 109Z" fill="#112e42" stroke="#112e42"></path><path d="M330 71L305 0L208 112Z" fill="#246688" stroke="#246688"></path><path d="M633 0L497 0L565 74Z" fill="#1d4e6b" stroke="#1d4e6b"></path><path d="M565 74L497 0L505 61Z" fill="#1d4e6b" stroke="#1d4e6b"></path><path d="M712 82L565 74L687 164Z" fill="#297ea6" stroke="#297ea6"></path><path d="M823 112L712 82L687 164Z" fill="#081a28" stroke="#081a28"></path><path d="M800 412L830 289L738 372Z" fill="#081a28" stroke="#081a28"></path><path d="M783 236L823 112L687 164Z" fill="#297ea6" stroke="#297ea6"></path><path d="M438 0L305 0L330 71Z" fill="#205a7a" stroke="#205a7a"></path><path d="M712 82L633 0L565 74Z" fill="#112e42" stroke="#112e42"></path><path d="M697 600L838 508L725 464Z" fill="#1d4e6b" stroke="#1d4e6b"></path><path d="M800 412L900 414L830 289Z" fill="#277297" stroke="#277297"></path><path d="M0 376L129 422L124 309Z" fill="#19435d" stroke="#19435d"></path><path d="M121 475L92 600L191 600Z" fill="#246688" stroke="#246688"></path><path d="M697 600L827 600L838 508Z" fill="#246688" stroke="#246688"></path><path d="M191 0L124 73L208 112Z" fill="#15384f" stroke="#15384f"></path><path d="M208 112L124 73L200 188Z" fill="#19435d" stroke="#19435d"></path><path d="M0 333L0 376L124 309Z" fill="#246688" stroke="#246688"></path><path d="M900 166L823 112L783 236Z" fill="#081a28" stroke="#081a28"></path><path d="M712 82L716 0L633 0Z" fill="#081a28" stroke="#081a28"></path><path d="M760 0L716 0L712 82Z" fill="#0c2435" stroke="#0c2435"></path><path d="M900 465L900 414L800 412Z" fill="#297ea6" stroke="#297ea6"></path><path d="M830 289L900 166L783 236Z" fill="#205a7a" stroke="#205a7a"></path><path d="M900 465L800 412L838 508Z" fill="#277297" stroke="#277297"></path><path d="M305 0L191 0L208 112Z" fill="#15384f" stroke="#15384f"></path><path d="M900 414L900 281L830 289Z" fill="#0c2435" stroke="#0c2435"></path><path d="M900 600L900 465L838 508Z" fill="#297ea6" stroke="#297ea6"></path><path d="M0 333L124 309L122 235Z" fill="#1d4e6b" stroke="#1d4e6b"></path><path d="M0 166L0 333L122 235Z" fill="#297ea6" stroke="#297ea6"></path><path d="M823 112L760 0L712 82Z" fill="#00101c" stroke="#00101c"></path><path d="M900 281L900 166L830 289Z" fill="#15384f" stroke="#15384f"></path><path d="M823 112L900 0L760 0Z" fill="#297ea6" stroke="#297ea6"></path><path d="M0 376L0 537L121 475Z" fill="#15384f" stroke="#15384f"></path><path d="M191 0L120 0L124 73Z" fill="#15384f" stroke="#15384f"></path><path d="M124 73L0 166L122 235Z" fill="#15384f" stroke="#15384f"></path><path d="M0 102L0 166L124 73Z" fill="#1d4e6b" stroke="#1d4e6b"></path><path d="M827 600L900 600L838 508Z" fill="#112e42" stroke="#112e42"></path><path d="M0 537L0 600L92 600Z" fill="#00101c" stroke="#00101c"></path><path d="M900 166L900 81L823 112Z" fill="#081a28" stroke="#081a28"></path><path d="M0 0L0 102L124 73Z" fill="#1d4e6b" stroke="#1d4e6b"></path><path d="M900 81L900 0L823 112Z" fill="#19435d" stroke="#19435d"></path><path d="M120 0L0 0L124 73Z" fill="#081a28" stroke="#081a28"></path></g></svg>